<svg id="quiz_black_24dp" xmlns="http://www.w3.org/2000/svg" width="18" height="18" viewBox="0 0 18 18">
  <g id="그룹_2647" data-name="그룹 2647">
    <path id="패스_7673" data-name="패스 7673" d="M0,0H18V18H0Z" fill="none"/>
  </g>
  <g id="그룹_2649" data-name="그룹 2649" transform="translate(1.523 1.523)">
    <g id="그룹_2648" data-name="그룹 2648">
      <path id="패스_7674" data-name="패스 7674" d="M3.523,6H2V16.66a1.527,1.527,0,0,0,1.523,1.523h10.66V16.66H3.523Z" transform="translate(-2 -3.229)" fill="#fff"/>
      <path id="패스_7675" data-name="패스 7675" d="M16.66,2H7.523A1.527,1.527,0,0,0,6,3.523V12.66a1.527,1.527,0,0,0,1.523,1.523H16.66a1.527,1.527,0,0,0,1.523-1.523V3.523A1.527,1.527,0,0,0,16.66,2ZM12.1,11.9a.8.8,0,1,1,0-1.591.777.777,0,0,1,.792.792A.793.793,0,0,1,12.1,11.9ZM14,7.2c-.48.708-.937.921-1.188,1.378-.1.183-.137.3-.137.9H11.52a2.453,2.453,0,0,1,.2-1.256c.312-.556.9-.883,1.241-1.371a.939.939,0,0,0-.868-1.477,1.21,1.21,0,0,0-1.142.937L9.906,5.876a2.266,2.266,0,0,1,2.178-1.591A2.154,2.154,0,0,1,14,5.244,1.909,1.909,0,0,1,14,7.2Z" transform="translate(-3.229 -2)" fill="#fff"/>
    </g>
  </g>
</svg>
