<svg id="그룹_2622" data-name="그룹 2622" xmlns="http://www.w3.org/2000/svg" xmlns:xlink="http://www.w3.org/1999/xlink" width="118.108" height="19.938" viewBox="0 0 118.108 19.938">
  <defs>
    <clipPath id="clip-path">
      <rect id="사각형_1848" data-name="사각형 1848" width="118.108" height="19.938" fill="#00b5ef"/>
    </clipPath>
  </defs>
  <g id="그룹_2621" data-name="그룹 2621" clip-path="url(#clip-path)">
    <path id="패스_7665" data-name="패스 7665" d="M463.689,2.964h0a1.567,1.567,0,0,0,1.567,1.567h9.157L463.8,17.882a2.044,2.044,0,0,0,1.688,3.2h11.549a1.567,1.567,0,1,0,0-3.134h-9.395l10.6-13.352a2.044,2.044,0,0,0-1.689-3.2h-11.3a1.567,1.567,0,0,0-1.567,1.567" transform="translate(-378.182 -1.14)" fill="#00b5ef"/>
    <path id="패스_7666" data-name="패스 7666" d="M374.172,2.009l-6.6,16.562a1.566,1.566,0,1,0,2.912,1.153l1.817-4.618h7.05l1.954,4.659a1.554,1.554,0,0,0,1.433.952h.007a1.554,1.554,0,0,0,1.434-2.15l-6.9-16.581A1.676,1.676,0,0,0,375.736.953h-.008a1.676,1.676,0,0,0-1.557,1.056m3.84,9.963h-4.427l2.13-5.527Z" transform="translate(-299.861 -0.778)" fill="#00b5ef"/>
    <path id="패스_7667" data-name="패스 7667" d="M557.186,2.009l-6.6,16.562a1.566,1.566,0,1,0,2.912,1.153l1.817-4.618h7.05l1.954,4.659a1.554,1.554,0,0,0,1.432.952h.007a1.554,1.554,0,0,0,1.434-2.15L560.3,1.985A1.676,1.676,0,0,0,558.75.953h-.008a1.676,1.676,0,0,0-1.557,1.056m3.84,9.963H556.6l2.13-5.527Z" transform="translate(-449.207 -0.778)" fill="#00b5ef"/>
    <path id="패스_7668" data-name="패스 7668" d="M6.2,39.44A3.847,3.847,0,0,0,10.1,37.173V38.4a1.008,1.008,0,0,0,1.087,1.04.991.991,0,0,0,1.09-1.04V25.107a1,1,0,0,0-1.09-1.088A.992.992,0,0,0,10.1,25.107v.924A4.2,4.2,0,0,0,6.2,24.019c-3.973,0-6.2,3.715-6.2,7.709S2.229,39.44,6.2,39.44M6.147,26.482c2.82,0,3.811,2.894,3.811,5.347s-.991,5.354-3.811,5.354-3.813-2.895-3.813-5.354.995-5.347,3.813-5.347" transform="translate(0 -19.6)" fill="#00b5ef"/>
    <path id="패스_7669" data-name="패스 7669" d="M70.251,6.573h1.676V18.8a1.174,1.174,0,0,0,2.331,0V6.573h1.679c.769,0,1.164-.4,1.164-1.079S76.706,4.42,75.937,4.42H74.259V1.175C74.259.651,74.152,0,73.092,0a1.046,1.046,0,0,0-1.165,1.175V4.42H70.251c-.769,0-1.165.393-1.165,1.075s.4,1.079,1.165,1.079" transform="translate(-56.377)" fill="#00b5ef"/>
    <path id="패스_7670" data-name="패스 7670" d="M111.817,39.44c3.975,0,6.2-3.712,6.2-7.712s-2.224-7.708-6.2-7.708-6.2,3.715-6.2,7.708,2.229,7.712,6.2,7.712m0-13.111c2.861,0,3.869,2.946,3.869,5.443s-1.008,5.453-3.869,5.453-3.869-2.947-3.869-5.453,1.007-5.443,3.869-5.443" transform="translate(-86.186 -19.601)" fill="#00b5ef"/>
    <path id="패스_7671" data-name="패스 7671" d="M273.083,31.5c-3,0-3.818-1.488-3.95-1.7h3.7a.981.981,0,0,0,1.039-1.114,1.008,1.008,0,0,0-1.039-1.121H268.3v-.781h4.567a1.006,1.006,0,0,0,1.109-1.052,1.033,1.033,0,0,0-1.109-1.053H268.3v-.688h4a.943.943,0,0,0,1.042-.973.967.967,0,0,0-1.042-.976h-4v-.719h4.995a.983.983,0,0,0,1.041-1.115,1.009,1.009,0,0,0-1.041-1.119H270.7s1.11-1.123.337-1.816a.964.964,0,0,0-1.417.124l-1.528,1.692h-1.706L264.856,17.4a.967.967,0,0,0-1.42-.124c-.77.693.34,1.816.34,1.816h-2.594a1.008,1.008,0,0,0-1.038,1.119.982.982,0,0,0,1.038,1.115h5v.719h-4a.965.965,0,0,0-1.041.976.942.942,0,0,0,1.041.973h4v.688h-4.568a1.034,1.034,0,0,0-1.11,1.053,1.007,1.007,0,0,0,1.11,1.052h4.568v.781h-4.54a1.007,1.007,0,0,0-1.038,1.121.98.98,0,0,0,1.038,1.114h3.7c-.13.213-.95,1.7-3.948,1.7-1.25,0-1.316.854-1.22,1.391a1.056,1.056,0,0,0,1.06.8s3.94.279,6-2.652c2.066,2.93,6.005,2.652,6.005,2.652a1.057,1.057,0,0,0,1.059-.8c.1-.538.033-1.391-1.218-1.391" transform="translate(-212.286 -13.872)" fill="#00b5ef"/>
    <path id="패스_7672" data-name="패스 7672" d="M191.817,27.468c0-2.085-2-3.393-3.838-3.393a4.049,4.049,0,0,0-3.448,1.572,2.989,2.989,0,0,0-2.716-1.572,3.084,3.084,0,0,0-2.416,1.1c-.006-.84-.321-1.156-.953-1.156-.732,0-1.039.339-1.039,1.219V38.4a1.042,1.042,0,0,0,1.114,1.038h.007a1.006,1.006,0,0,0,1.109-1.038V28.464c0-.366.131-1.67,1.942-1.67,1.709,0,1.918,1.054,1.918,1.67V38.4a1.022,1.022,0,0,0,1.118,1.038.994.994,0,0,0,1.114-1.038V28.464c0-.787.454-1.67,1.923-1.67,1.773,0,1.934,1.054,1.934,1.67V38.4a1,1,0,0,0,1.117,1.038.983.983,0,0,0,1.117-1.038Z" transform="translate(-144.77 -19.602)" fill="#00b5ef"/>
  </g>
</svg>
